<svg width="415" height="475" viewBox="0 0 415 475" fill="none" xmlns="http://www.w3.org/2000/svg">
<path d="M212.843 181H188.623L179.987 56.3319H198.386L202.329 143.637H203.08L208.15 56.3319H228.427L234.059 143.637H234.81L238.566 56.3319H256.59L247.953 181H223.733L218.664 93.5071H217.913L212.843 181ZM296.405 181H259.981V56.3319H295.279V73.4175H278.756V107.025H293.213V124.299H278.756V163.914H296.405V181ZM300.502 101.205V90.8785C305.947 87.8745 308.575 83.3684 308.575 77.548V73.2297H300.502V54.8299H319.09V74.9195C319.09 90.3153 312.518 98.9519 300.502 101.205ZM343.663 181H324.888V56.3319H352.112C365.63 56.3319 370.512 63.6543 370.512 76.046V104.021C370.512 112.282 366.569 117.915 360.373 119.041V119.792C366.569 120.731 370.887 124.486 370.887 134.813V181H352.112V133.123C352.112 129.743 350.798 127.866 347.794 127.866H343.663V181ZM352.112 106.087V78.299C352.112 74.9195 350.61 73.4175 347.418 73.4175H343.663V112.282H347.418C350.61 112.282 352.112 110.029 352.112 106.087ZM412.467 181H376.043V56.3319H411.341V73.4175H394.819V107.025H409.276V124.299H394.819V163.914H412.467V181Z" fill="white" fill-opacity="0.5"/>
<path d="M63.4586 447.985H5.69988V195.67H59.2787C86.6381 195.67 96.8979 210.49 96.8979 235.569V283.448C96.8979 300.168 90.438 311.188 77.1383 313.468V314.988C89.6781 317.268 99.5579 323.728 99.5579 347.287V414.166C99.5579 436.585 89.6781 447.985 63.4586 447.985ZM61.1787 401.246V344.627C61.1787 335.887 57.3788 331.707 50.1589 331.707H43.6991V414.926H50.1589C57.3788 414.926 61.1787 410.366 61.1787 401.246ZM60.7987 287.628V242.409C60.7987 232.91 58.8987 228.73 51.2989 228.73H43.6991V300.168H51.2989C57.7588 300.168 60.7987 295.988 60.7987 287.628ZM206.175 447.985H167.796L163.616 390.606H144.237L140.437 447.985H102.817L127.517 195.67H181.476L206.175 447.985ZM153.356 259.889L146.517 357.547H161.336L154.876 259.889H153.356ZM266.018 403.146V345.007H302.117V400.486C302.117 433.545 286.538 449.885 256.898 449.885C226.499 449.885 210.539 432.025 210.539 400.106V243.169C210.539 210.11 225.739 194.15 256.518 194.15C285.778 194.15 302.117 208.21 302.117 242.789V286.108H266.018V241.269C266.018 233.67 262.978 229.87 257.278 229.87C251.578 229.87 248.918 233.67 248.918 241.269V403.146C248.918 411.126 250.818 414.546 256.898 414.546C262.978 414.546 266.018 411.126 266.018 403.146ZM411.73 447.985H372.591L360.811 352.607H359.671L353.591 377.306V447.985H314.072V195.67H353.591V282.688H355.111C356.631 271.289 359.671 258.749 373.351 195.67H412.11L388.17 291.048L411.73 447.985Z" fill="#45F300"/>
<path d="M22.46 153.595H17.1713C16.8909 150.871 15.2482 149.548 11.8827 149.548C8.75757 149.548 7.11488 150.67 7.11488 152.674C7.11488 154.356 8.27678 155.318 11.2416 156.039C14.2465 156.76 17.1713 157.481 19.1345 158.363C21.4583 159.405 23.3013 161.047 23.3013 164.813C23.3013 170.663 18.8941 173.267 12.684 173.267C6.11325 173.267 1.54579 170.342 1.42559 164.373H6.79436C6.87449 167.097 9.15822 168.78 12.724 168.78C16.0094 168.78 17.8925 167.378 17.8925 165.014C17.8925 163.451 17.0912 162.369 13.7657 161.648C10.4804 160.927 8.35691 160.446 6.47384 159.605C3.62919 158.323 2.02657 156.4 2.02657 153.034C2.02657 148.266 5.27187 144.861 11.7625 144.861C18.4935 144.861 22.2596 148.507 22.46 153.595ZM46.2379 172.346H40.6287V160.406H30.2517V172.346H24.6826V145.742H30.2517V155.759H40.6287V145.742H46.2379V172.346ZM53.7667 172.346H48.1976V145.742H53.7667V172.346ZM74.4214 172.346H55.6708V145.742H61.2399V167.498H74.4214V172.346ZM94.4933 172.346H75.7426V145.742H81.3117V167.498H94.4933V172.346ZM106.71 168.499C110.716 168.499 113.922 165.695 113.922 159.405C113.922 153.114 111.357 149.789 106.71 149.789C102.022 149.789 99.4179 153.114 99.4179 159.405C99.4179 165.695 102.102 168.499 106.71 168.499ZM106.71 173.267C98.5364 173.267 93.9289 168.259 93.9289 159.284C93.9289 150.27 98.5364 144.861 106.71 144.861C114.883 144.861 119.411 150.27 119.411 159.405C119.411 168.539 114.883 173.267 106.71 173.267ZM142.766 172.346H137.637L126.259 154.477V172.346H121.09V145.742H126.98L137.557 162.85V145.742H142.766V172.346ZM169.202 172.346H164.594L164.474 169.701C163.192 171.945 160.147 173.267 156.501 173.267C149.129 173.267 144.441 166.416 144.441 159.004C144.441 151.151 148.928 144.861 157.543 144.861C163.873 144.861 168.761 148.627 169.161 153.956H163.552C163.272 151.472 160.587 149.468 157.543 149.468C153.095 149.468 150.13 152.914 150.13 159.244C150.13 163.611 152.334 168.58 157.502 168.58C161.148 168.58 163.993 165.815 163.993 162.49H158.103V158.042H169.202V172.346Z" fill="#45F300" fill-opacity="0.5"/>
</svg>
